{"title":"Jurassic World [2015] (No Cinavia) 1080p","uid":12953736,"size":3467531186,"categoryP":"video","categoryS":"hd___movies","magnet":"?xt=urn:btih:76080a7adf8f92500884b1f8c4d0f736f899bc1c&amp;dn=Jurassic+World+%5B2015%5D+%28No+Cinavia%29+1080p&amp;tr=udp%3A%2F%2Ftracker.leechers-paradise.org%3A6969&amp;tr=udp%3A%2F%2Fzer0day.ch%3A1337&amp;tr=udp%3A%2F%2Fopen.demonii.com%3A1337&amp;tr=udp%3A%2F%2Ftracker.coppersurfer.tk%3A6969&amp;tr=udp%3A%2F%2Fexodus.desync.com%3A6969","seeders":0,"leechers":0,"uploader":"AlienMethod","files":6,"time":1449762921,"description":"x264/mp4\r\n6-Channel    (audio 1)\r\n2-Channel    (audio 2)\r\nCinavia Removed (CinEx HD)\r\nEnglish Subs\r\n\r\n&quot;A new theme park is built on the original site of Jurassic Park. Everything is going well\r\nuntil the park's newest attraction--a genetically modified giant stealth killing machine-\r\n-escapes containment and goes on a killing spree.&quot;\r\n\r\n\r\n\r\nGeneral\r\nComplete name: Jurassic World [2015] (NoCinavia) 1080p\r\nJurassic World [2015] (NoCinavia) 1080p.mp4\r\nFormat : MPEG-4\r\nFormat profile : Base Media\r\nCodec ID : isom\r\nFile size : 3.23 GiB\r\nDuration : 2h 4mn\r\nOverall bit rate mode : Variable\r\nOverall bit rate : 3 718 Kbps\r\nEncoded date : UTC 2015-12-10 04:51:15\r\nTagged date : UTC 2015-12-10 04:51:15\r\nWriting application : My MP4Box GUI 0.6.0.6 \r\n\r\nVideo\r\nID : 1\r\nFormat : AVC\r\nFormat/Info : Advanced Video Codec\r\nFormat profile :   \r\nFormat settings, CABAC : Yes\r\nFormat settings, ReFrames : 4 frames\r\nCodec ID : avc1\r\nCodec ID/Info : Advanced Video Coding\r\nDuration : 2h 4mn\r\nBit rate : 2 850 Kbps\r\nMaximum bit rate : 19.8 Mbps\r\nWidth : 1 920 pixels\r\nHeight : 960 pixels\r\nDisplay aspect ratio : 2.000\r\nFrame rate mode : Constant\r\nFrame rate : 23.976 fps\r\nColor space : YUV\r\nChroma subsampling : 4:2:0\r\nBit depth : 8 bits\r\nScan type : Progressive\r\nBits/(Pixel*Frame) : 0.064\r\nStream size : 2.48 GiB (77%)\r\nTitle : Jurassic World (CinEx)_track1_und.h264\r\nWriting library : x264 core 146 r2538 121396c\r\nEncoded date : UTC 2015-12-10 04:51:15\r\nTagged date : UTC 2015-12-10 04:51:42\r\n\r\nAudio #1\r\nID : 2\r\nFormat : AC-3\r\nFormat/Info : Audio Coding 3\r\nMode extension : CM (complete main)\r\nFormat settings, Endianness : Big\r\nCodec ID : ac-3\r\nDuration : 2h 4mn\r\nBit rate mode : Constant\r\nBit rate : 640 Kbps\r\nChannel(s) : 6 channels\r\nChannel positions : Front: L C R, Side: L R, LFE\r\nSampling rate : 48.0 KHz\r\nBit depth : 16 bits\r\nCompression mode : Lossy\r\nStream size : 569 MiB (17%)\r\nTitle : Jurassic World (CinEx)_track2_und.ac3\r\nEncoded date : UTC 2015-12-10 04:51:38\r\nTagged date : UTC 2015-12-10 04:51:42\r\n\r\nAudio #2\r\nID : 3\r\nFormat : AAC\r\nFormat/Info : Advanced Audio Codec\r\nFormat profile : LC\r\nCodec ID : 40\r\nDuration : 2h 4mn\r\nBit rate mode : Variable\r\nBit rate : 224 Kbps\r\nMaximum bit rate : 265 Kbps\r\nChannel(s) : 2 channels\r\nChannel positions : Front: L R\r\nSampling rate : 48.0 KHz\r\nCompression mode : Lossy\r\nStream size : 199 MiB (6%)\r\nTitle : Jurassic World (CinEx)_track2_und_Output.m4a\r\nEncoded date : UTC 2015-12-10 04:51:41\r\nTagged date : UTC 2015-12-10 04:51:42","torrent":{"xt":"urn:btih:76080a7adf8f92500884b1f8c4d0f736f899bc1c","amp;dn":"Jurassic+World+%5B2015%5D+%28No+Cinavia%29+1080p","amp;tr":["udp%3A%2F%2Ftracker.leechers-paradise.org%3A6969","udp%3A%2F%2Fzer0day.ch%3A1337","udp%3A%2F%2Fopen.demonii.com%3A1337","udp%3A%2F%2Ftracker.coppersurfer.tk%3A6969","udp%3A%2F%2Fexodus.desync.com%3A6969"],"infoHash":"76080a7adf8f92500884b1f8c4d0f736f899bc1c","infoHashBuffer":{"type":"Buffer","data":[118,8,10,122,223,143,146,80,8,132,177,248,196,208,247,54,248,153,188,28]},"announce":[],"urlList":[]}}